# xmcd
#
# Track frame offsets: 
#        150
#        14274
#        30466
#        46071
#        59978
#        77704
#        94989
#        111894
#        127937
#        139155
#        156625
#
# Disc length: 2389 seconds
#
# Revision: 0
# Processed by: cddbd v1.5.2PL0 Copyright (c) Steve Scherf et al.
# Submitted via: ExactAudioCopyFreeDBPlugin 1.0
#
DISCID=9409530b
DTITLE=Anthony David - Love Out Loud
DYEAR=2012
DGENRE=R&B
TTITLE0=Aspiracy Theory
TTITLE1=Love Out Loud
TTITLE2=Can't Look Down
TTITLE3=So Jaded
TTITLE4=Livin' It Up (feat. Demetria McKinney and Gramps Morgan)
TTITLE5=Official (Featuring Algebra)
TTITLE6=Sweet Pain
TTITLE7=Movie Night
TTITLE8=Control Freak
TTITLE9=On My Way To Crazy
TTITLE10=A Way For Me
EXTD=
EXTT0=
EXTT1=
EXTT2=
EXTT3=
EXTT4=
EXTT5=
EXTT6=
EXTT7=
EXTT8=
EXTT9=
EXTT10=
PLAYORDER=
